<svg width="376" height="138" viewBox="0 0 376 138" fill="none" xmlns="http://www.w3.org/2000/svg">
<path d="M332.552 0.543457H355.552V109.543H375.052V137.043H332.552V0.543457Z" fill="white"/>
<path d="M180.052 65.5435C196.552 64.5435 195.052 44.0435 195.052 44.0435C192.552 24.0435 180.052 25.0435 180.052 25.0435V65.5435ZM127.052 97.0435L120.052 55.5435L114.052 97.0435H127.052ZM0.552368 136.543V0.543457H31.5524L42.5524 57.5435L55.0524 0.543457H85.0524V123.043L104.552 0.543457H135.052L154.052 123.043V1.04346H194.552C194.552 1.04346 208.552 3.54346 215.552 23.0435L212.552 0.543457H237.052L248.552 71.0435L260.552 1.04346H329.552V26.5435H309.052V54.5435H328.552V83.0435H309.552V109.043H329.552V136.543H285.052V5.54346L262.052 136.543H234.552L220.052 49.5435C220.052 49.5435 217.552 73.5435 204.052 84.5435L221.552 136.543H197.552L180.552 91.0435V136.543H132.052L129.552 123.543H111.052L107.052 136.543H61.0524V86.5435L49.0524 136.543H36.5524L25.5524 87.0435V136.043L0.552368 136.543Z" fill="white"/>
</svg>
